<svg width="50" height="49" viewBox="0 0 50 49" fill="none" xmlns="http://www.w3.org/2000/svg">
<path d="M48.7119 0.0800781H1.28786C0.951964 0.0800781 0.679688 0.35193 0.679688 0.688252V42.751C0.679688 43.0869 0.95154 43.3592 1.28786 43.3592H3.4987L4.66758 48.2542C4.73247 48.5273 4.97718 48.7203 5.25879 48.7203H8.907C9.18862 48.7203 9.4329 48.5274 9.49821 48.2538L10.6671 43.3587H39.3321L40.501 48.2538C40.5663 48.5273 40.811 48.7203 41.0926 48.7203H44.7408C45.0225 48.7203 45.2667 48.5274 45.332 48.2538L46.5009 43.3587H48.7113C49.0472 43.3587 49.3195 43.0869 49.3195 42.7506V0.688914C49.3195 0.352592 49.0476 0.0807404 48.7113 0.0807404L48.7119 0.0800781ZM1.89586 15.317H48.1039V28.1219H1.89586V15.317ZM48.1039 14.1011H25.6079V1.29619H48.1039V14.1011ZM24.3919 1.29619V14.1011L1.89586 14.1015V1.29661L24.3919 1.29619ZM8.42752 47.5042H5.73907L4.74921 43.3585H9.41734L8.42752 47.5042ZM44.2615 47.5042H41.5731L40.5832 43.3585H45.2513L44.2615 47.5042ZM1.89586 42.1426V29.3377H48.1039V42.1426H1.89586Z" fill="white"/>
<path d="M12.7475 10.7005C14.5305 10.7005 15.9809 9.25007 15.9809 7.46755C15.9809 7.13165 15.709 6.85938 15.3727 6.85938C15.0368 6.85938 14.7645 7.13123 14.7645 7.46755C14.7645 8.57954 13.8595 9.48459 12.7471 9.48459C11.6351 9.48459 10.73 8.57955 10.73 7.46755C10.73 7.13165 10.4582 6.85938 10.1218 6.85938C9.78595 6.85938 9.51367 7.13123 9.51367 7.46755C9.51452 9.25007 10.9649 10.7005 12.7475 10.7005H12.7475Z" fill="white"/>
<path d="M37.2523 10.7005C39.0349 10.7005 40.4853 9.25007 40.4853 7.46755C40.4853 7.13165 40.2134 6.85938 39.8771 6.85938C39.5412 6.85938 39.2689 7.13123 39.2689 7.46755C39.2689 8.57954 38.3639 9.48459 37.2519 9.48459C36.139 9.48459 35.2344 8.57955 35.2344 7.46755C35.2344 7.13165 34.9626 6.85938 34.6262 6.85938C34.2903 6.85938 34.0181 7.13123 34.0181 7.46755C34.0189 9.25007 35.4693 10.7005 37.2523 10.7005H37.2523Z" fill="white"/>
<path d="M27.6252 21.1113C27.2893 21.1113 27.017 21.3832 27.017 21.7195C27.017 22.8315 26.112 23.7365 25 23.7365C23.888 23.7365 22.9829 22.8315 22.9829 21.7195C22.9829 21.3836 22.7111 21.1113 22.3748 21.1113C22.0389 21.1113 21.7666 21.3832 21.7666 21.7195C21.7666 23.502 23.217 24.9524 24.9995 24.9524C26.7821 24.9524 28.2325 23.502 28.2325 21.7195C28.2333 21.3836 27.9615 21.1113 27.6251 21.1113H27.6252Z" fill="white"/>
<path d="M27.6252 35.1328C27.2893 35.1328 27.017 35.4047 27.017 35.741C27.017 36.853 26.112 37.758 25 37.758C23.888 37.758 22.9829 36.853 22.9829 35.741C22.9829 35.4051 22.7111 35.1328 22.3748 35.1328C22.0389 35.1328 21.7666 35.4047 21.7666 35.741C21.7666 37.5235 23.217 38.9739 24.9995 38.9739C26.7821 38.9739 28.2325 37.5235 28.2325 35.741C28.2333 35.4047 27.9615 35.1328 27.6251 35.1328H27.6252Z" fill="white"/>
</svg>
