<svg width="275" height="275" viewBox="0 0 275 275" fill="none" xmlns="http://www.w3.org/2000/svg">
<circle cx="137.5" cy="137.5" r="136.5" stroke="#C29A5C" stroke-width="2" stroke-dasharray="10 10"/>
<path d="M55.8814 149.374C61.0154 149.374 64.4154 146.824 64.4154 142.574C64.4154 139.038 61.2874 136.658 58.0574 136.386V136.284C61.0154 135.944 63.6334 133.428 63.6334 130.47C63.6334 126.696 60.1994 124.826 55.6434 124.826C52.7534 124.826 50.5774 125.37 48.6734 126.492V131.932H49.0134C49.6934 128.804 51.4954 125.574 55.3714 125.574C58.6694 125.574 60.1654 128.192 60.1654 130.47C60.1654 133.666 58.1254 136.012 54.3514 136.012H53.1614V136.76H54.3514C58.0914 136.76 60.8794 138.426 60.8794 142.132C60.8794 145.6 58.4314 147.504 55.2014 147.504C51.9714 147.504 49.1154 145.974 47.5854 142.302H47.2454C48.3334 147.368 51.9374 149.374 55.8814 149.374ZM70.5301 149V148.83C69.5101 148.048 69.2041 146.892 69.8161 145.328L71.6181 140.772H80.7641L82.5661 145.396C83.1441 146.892 82.6681 148.184 82.0561 148.83V149H88.1081V148.83C87.1561 147.844 86.6801 146.994 86.0681 145.43L78.0441 125.064H76.8881L68.8641 145.43C68.2861 146.926 67.5381 148.014 66.3141 148.83V149H70.5301ZM76.1741 129.008L80.4921 140.058H71.8561L76.1741 129.008ZM103.381 149V148.83C102.803 148.048 102.327 146.756 102.327 145.43V125.2H101.919L96.2067 128.09V128.668C96.7167 128.464 97.1587 128.328 97.5667 128.328C98.4847 128.328 99.0967 128.906 99.0967 130.334V145.43C99.0967 146.756 98.6207 148.048 98.0427 148.83V149H103.381ZM121.338 149V148.83C120.76 148.048 120.284 146.756 120.284 145.43V142.846H123.344L124.16 140.602H120.284V125.2H119.162L107.126 141.758V142.846H117.054V145.43C117.054 146.756 116.578 148.048 116 148.83V149H121.338ZM117.054 129.382V140.602H108.928L117.054 129.382ZM132.433 155.562C132.841 152.094 134.609 149 138.417 149H147.325C151.133 149 152.901 152.094 153.309 155.562H153.819V148.286H150.929V128.77C150.929 127.444 151.405 126.152 151.983 125.37V125.2H136.275V125.37C137.771 126.458 138.859 128.464 138.859 131.932C138.859 136.794 136.649 148.184 132.093 148.286H131.923V155.562H132.433ZM135.187 148.286C137.533 144.546 139.947 138.902 139.947 128.634C139.947 127.376 139.947 126.662 139.913 125.914H147.699V148.286H135.187ZM163.225 149V148.83C162.647 148.048 162.171 146.756 162.171 145.43V137.1H174.139V145.43C174.139 146.756 173.663 148.048 173.085 148.83V149H178.423V148.83C177.845 148.048 177.369 146.756 177.369 145.43V128.77C177.369 127.444 177.845 126.152 178.423 125.37V125.2H173.085V125.37C173.663 126.152 174.139 127.444 174.139 128.77V136.386H162.171V128.77C162.171 127.444 162.647 126.152 163.225 125.37V125.2H157.887V125.37C158.465 126.152 158.941 127.444 158.941 128.77V145.43C158.941 146.756 158.465 148.048 157.887 148.83V149H163.225ZM200.301 149L201.015 143.39H200.675C199.417 146.28 197.955 148.286 194.011 148.286H188.435V137.304H192.957C195.303 137.304 196.289 138.63 196.697 140.262H197.037V133.632H196.697C196.289 135.298 195.303 136.59 192.957 136.59H188.435V125.914H193.195C197.139 125.914 198.601 127.92 199.859 130.81H200.199L199.485 125.2H184.151V125.37C184.729 126.152 185.205 127.444 185.205 128.77V145.43C185.205 146.756 184.729 148.048 184.151 148.83V149H200.301ZM215.604 122.888C219.446 122.888 221.01 121.324 221.01 119.726C221.01 118.672 220.364 118.06 219.242 118.06C218.63 118.06 218.086 118.23 217.644 118.604C218.018 119.08 218.12 119.658 218.12 120.134C218.12 121.596 217.44 122.276 215.604 122.276C213.734 122.276 213.054 121.596 213.054 120.134C213.054 119.658 213.156 119.08 213.53 118.604C213.088 118.23 212.578 118.06 211.932 118.06C210.81 118.06 210.198 118.672 210.198 119.726C210.198 121.324 211.762 122.888 215.604 122.888ZM210.606 149V148.83C210.028 148.048 209.552 146.756 209.552 145.43L221.656 130.164V145.43C221.656 146.756 221.18 148.048 220.602 148.83V149H225.94V148.83C225.362 148.048 224.886 146.756 224.886 145.43V128.77C224.886 127.444 225.362 126.152 225.94 125.37V125.2H220.602V125.37C221.18 126.152 221.656 127.444 221.656 128.77L209.552 144.036V128.77C209.552 127.444 210.028 126.152 210.606 125.37V125.2H205.268V125.37C205.846 126.152 206.322 127.444 206.322 128.77V145.43C206.322 146.756 205.846 148.048 205.268 148.83V149H210.606Z" fill="#C29A5C"/>
</svg>
