<svg width="32" height="32" viewBox="0 0 32 32" fill="none" xmlns="http://www.w3.org/2000/svg"><path d="M23.73 20.272h-1.795c-.677 0-.888-.526-2.103-1.68-1.057-.976-1.538-1.096-1.787-1.096-.366 0-.47.084-.47.577v1.534c0 .413-.138.662-1.283.662-1.892 0-3.994-1.096-5.47-3.12C8.607 14.186 8 11.925 8 11.479c0-.248.088-.478.607-.478h1.796c.45 0 .622.183.8.661.883 2.426 2.36 4.552 2.967 4.552.226 0 .33-.099.33-.643v-2.506c-.069-1.158-.715-1.257-.715-1.67a.405.405 0 0 1 .144-.289.448.448 0 0 1 .318-.105h2.814c.384 0 .518.197.518.628v3.38c0 .364.158.496.277.496.227 0 .42-.132.834-.53a14.356 14.356 0 0 0 2.207-3.481.794.794 0 0 1 .769-.479h1.806c.538 0 .662.267.538.629-.222.99-2.414 3.927-2.394 3.927-.192.296-.262.427 0 .76.192.248.815.76 1.234 1.22.768.825 1.353 1.52 1.51 1.998.158.478-.119.723-.63.723Z" fill="#2A2A2A"/></svg>