<svg width="32" height="32" viewBox="0 0 32 32" fill="none" xmlns="http://www.w3.org/2000/svg"><path d="M22.087 12.738v.488c0 4.996-3.24 10.752-9.16 10.752-1.747.002-3.457-.586-4.927-1.695.26.034.522.051.785.051 1.449.003 2.856-.567 3.997-1.616-1.377-.032-2.586-1.086-3.009-2.625a2.739 2.739 0 0 0 1.455-.064c-1.495-.354-2.574-1.893-2.58-3.684v-.046c.446.287.945.445 1.455.46-1.414-1.108-1.85-3.316-.997-5.042 1.635 2.35 4.04 3.778 6.622 3.932-.336-1.669.328-3.394 1.617-4.203 1.289-.808 2.88-.497 3.875.759a5.955 5.955 0 0 0 2.048-.921c-.244.874-.746 1.616-1.416 2.09a5.643 5.643 0 0 0 1.84-.593 7.229 7.229 0 0 1-1.605 1.957Z" fill="#2A2A2A"/></svg>