<svg width="32" height="32" viewBox="0 0 32 32" fill="none" xmlns="http://www.w3.org/2000/svg"><path fill-rule="evenodd" clip-rule="evenodd" d="M15.981 16.202c2.455 0 4.45-2.064 4.45-4.6C20.43 9.064 18.435 7 15.98 7c-2.453 0-4.449 2.064-4.449 4.602 0 2.536 1.996 4.6 4.45 4.6Zm1.842-4.6c0-1.051-.826-1.905-1.842-1.905-1.015 0-1.842.854-1.842 1.905 0 1.05.827 1.904 1.842 1.904 1.016 0 1.842-.855 1.842-1.904Z" fill="#2A2A2A"/><path d="M17.793 19.957a8.184 8.184 0 0 0 2.583-1.106c.61-.397.793-1.23.409-1.859a1.277 1.277 0 0 0-1.797-.424 5.49 5.49 0 0 1-5.99 0 1.277 1.277 0 0 0-1.797.424c-.384.63-.201 1.462.408 1.859a8.197 8.197 0 0 0 2.583 1.106l-2.487 2.573a1.381 1.381 0 0 0 0 1.906c.255.263.588.395.922.395.333 0 .667-.132.922-.395l2.443-2.528 2.445 2.528a1.272 1.272 0 0 0 1.843 0 1.38 1.38 0 0 0 0-1.906l-2.487-2.573Z" fill="#2A2A2A"/></svg>