<svg width="32" height="32" viewBox="0 0 32 32" fill="none" xmlns="http://www.w3.org/2000/svg"><path d="M16.063 9C13.013 9 10 11.053 10 14.374c0 2.113 1.177 3.313 1.89 3.313.294 0 .464-.828.464-1.062 0-.279-.704-.873-.704-2.034 0-2.413 1.818-4.124 4.172-4.124 2.024 0 3.522 1.162 3.522 3.295 0 1.594-.633 4.583-2.684 4.583-.74 0-1.373-.54-1.373-1.314 0-1.135.784-2.233.784-3.404 0-1.986-2.79-1.626-2.79.775 0 .504.062 1.062.285 1.521-.41 1.783-1.248 4.439-1.248 6.275 0 .567.08 1.126.133 1.693.101.114.05.102.205.045 1.498-2.071 1.445-2.476 2.122-5.186.366.703 1.31 1.08 2.06 1.08 3.156 0 4.574-3.105 4.574-5.905 0-2.98-2.55-4.924-5.35-4.924V9Z" fill="#2A2A2A"/></svg>