<svg width="32" height="32" viewBox="0 0 32 32" fill="none" xmlns="http://www.w3.org/2000/svg"><path d="M23.45 11.04c-.617-.738-1.758-1.04-3.937-1.04h-7.909c-2.228 0-3.388.321-4.004 1.108-.6.768-.6 1.898-.6 3.463v2.983c0 3.032.712 4.571 4.604 4.571h7.91c1.889 0 2.936-.266 3.613-.918.694-.67.99-1.762.99-3.653v-2.983c0-1.65-.046-2.788-.666-3.53Zm-5.46 5.434-3.592 1.89a.549.549 0 0 1-.541-.018.557.557 0 0 1-.267-.475v-3.766c0-.194.101-.374.266-.475a.55.55 0 0 1 .541-.018l3.591 1.877a.556.556 0 0 1 .002.985Z" fill="#2A2A2A"/></svg>