<svg width="32" height="32" viewBox="0 0 32 32" fill="none" xmlns="http://www.w3.org/2000/svg"><path fill-rule="evenodd" clip-rule="evenodd" d="M4.36292 15.9966c.13175.2298.31311.5334.54259.8887.54058.837 1.3413 1.9504 2.38137 3.0598C9.38616 22.1844 12.3362 24.2799 16 24.2799c3.6639 0 6.6139-2.0955 8.7132-4.3348 1.04-1.1094 1.8408-2.2228 2.3813-3.0598.2295-.3553.4109-.6589.5426-.8887-.1317-.2298-.3131-.5333-.5426-.8887-.5405-.837-1.3413-1.9504-2.3813-3.0598C22.6139 9.80885 19.6639 7.71328 16 7.71328c-3.6638 0-6.61384 2.09557-8.71312 4.33482-1.04007 1.1094-1.84079 2.2228-2.38137 3.0598-.22948.3554-.41084.6589-.54259.8887Zm24.47048 0c.9391-.4696.9389-.4699.9387-.4703l-.0005-.001-.0012-.0025-.0039-.0077-.013-.0253a6.93476 6.93476 0 0 0-.0465-.0891c-.0401-.0759-.0985-.184-.175-.3199-.1527-.2716-.3779-.6547-.6734-1.1122-.5896-.9129-1.466-2.1329-2.6134-3.3568C23.9695 8.18438 20.5028 5.61328 16 5.61328c-4.5028 0-7.96943 2.5711-10.24515 4.99852-1.14744 1.2239-2.0238 2.4439-2.61343 3.3568-.29546.4575-.52064.8406-.67341 1.1122-.07642.1359-.13484.244-.17498.3199a7.7087 7.7087 0 0 0-.04652.0891l-.01293.0253-.00388.0077-.00178.0035c-.0002.0004-.00037.0007.93877.4703l-.93877-.4703c-.1478.2956-.14818.6443-.00037.9399l.93914-.4696c-.93914.4696-.93934.4692-.93914.4696l.00215.0043.00388.0076.01293.0254c.01093.0212.02644.0511.04652.089.04014.0759.09856.1841.17498.3199.15277.2716.37795.6547.67341 1.1122.58963.913 1.46599 2.1329 2.61343 3.3568C8.03057 23.8089 11.4972 26.3799 16 26.3799c4.5028 0 7.9695-2.571 10.2452-4.9985 1.1474-1.2239 2.0238-2.4438 2.6134-3.3568.2955-.4575.5207-.8406.6734-1.1122.0765-.1358.1349-.244.175-.3199.0201-.0379.0356-.0678.0465-.089l.013-.0254.0039-.0076.0012-.0026.0005-.001c.0002-.0004.0004-.0007-.9387-.4703Zm0 0 .9387.4703c.1478-.2956.1478-.645 0-.9406l-.9387.4703Zm-.9387.4705c0 .0001 0 .0001 0 0Z" fill="#fff"/><path fill-rule="evenodd" clip-rule="evenodd" d="M16 13.5492c-1.3531 0-2.45 1.0969-2.45 2.45 0 1.3531 1.0969 2.45 2.45 2.45 1.3531 0 2.45-1.0969 2.45-2.45 0-1.3531-1.0969-2.45-2.45-2.45Zm-4.55 2.45c0-2.5129 2.0371-4.55 4.55-4.55 2.5129 0 4.55 2.0371 4.55 4.55 0 2.5129-2.0371 4.55-4.55 4.55-2.5129 0-4.55-2.0371-4.55-4.55Z" fill="#fff"/></svg>