<svg width="32" height="32" viewBox="0 0 32 32" fill="none" xmlns="http://www.w3.org/2000/svg"><path fill-rule="evenodd" clip-rule="evenodd" d="m17.094 10.221-2.675-.001c-.655.003-.91.012-1.38.04a3.73 3.73 0 0 0-1.261.233 2.223 2.223 0 0 0-1.284 1.284c-.15.404-.23.83-.234 1.26l-.024.575c-.01.329-.015.698-.016 1.445l.002 2.223c.003.549.013.8.038 1.233.005.43.084.857.234 1.26a2.223 2.223 0 0 0 1.284 1.284c.403.15.83.23 1.26.234l.534.023c.339.011.708.016 1.486.017l2.15-.001c.6-.003.854-.013 1.305-.039.43-.004.857-.083 1.26-.234a2.223 2.223 0 0 0 1.285-1.284c.15-.403.229-.83.233-1.26l.023-.534c.011-.34.016-.708.017-1.486v-2.15c-.004-.6-.014-.854-.04-1.306a3.726 3.726 0 0 0-.233-1.26 2.222 2.222 0 0 0-1.285-1.284 3.73 3.73 0 0 0-1.26-.234l-.575-.024c-.225-.007-.47-.011-.844-.014Zm2.161 5.554a3.48 3.48 0 1 0-6.959 0 3.48 3.48 0 0 0 6.96 0Zm.45-4.37a.813.813 0 1 0-.622 1.503.813.813 0 0 0 .622-1.503Z" fill="#2A2A2A"/><path d="M15.776 13.515a2.26 2.26 0 1 0 0 4.52 2.26 2.26 0 0 0 0-4.52Z" fill="#2A2A2A"/><path fill-rule="evenodd" clip-rule="evenodd" d="M14.358 9h2.748c.705.003.97.012 1.465.04.561.012 1.117.119 1.643.314a3.48 3.48 0 0 1 1.999 1.983c.196.526.302 1.081.315 1.643l.015.528c.007.357.008.742.009 1.571l-.003 2.263c-.004.536-.014.793-.038 1.229a5.04 5.04 0 0 1-.298 1.643 3.48 3.48 0 0 1-2 1.999 5.037 5.037 0 0 1-1.642.315l-.529.015a81.24 81.24 0 0 1-1.57.009l-2.263-.003a21.192 21.192 0 0 1-1.229-.038 5.038 5.038 0 0 1-1.643-.298 3.48 3.48 0 0 1-1.982-1.982 5.039 5.039 0 0 1-.315-1.644l-.019-.38c-.016-.378-.02-.715-.021-1.482v-2.28c.004-.705.013-.97.04-1.465.013-.562.12-1.117.315-1.643a3.48 3.48 0 0 1 1.982-1.983 5.037 5.037 0 0 1 1.643-.315l.493-.023c.244-.01.494-.014.885-.016Zm2.736 1.221-2.675-.001c-.655.003-.91.012-1.38.04a3.73 3.73 0 0 0-1.261.233 2.223 2.223 0 0 0-1.284 1.284c-.15.404-.23.83-.234 1.26l-.024.575c-.01.329-.015.698-.016 1.445l.002 2.223c.003.549.013.8.038 1.233.005.43.084.857.234 1.26a2.223 2.223 0 0 0 1.284 1.284c.403.15.83.23 1.26.234l.534.023c.339.011.708.016 1.486.017l2.15-.001c.6-.003.854-.013 1.305-.039.43-.004.857-.083 1.26-.234a2.223 2.223 0 0 0 1.285-1.284c.15-.403.229-.83.233-1.26l.023-.534c.011-.34.016-.708.017-1.486v-2.15c-.004-.6-.014-.854-.04-1.306a3.726 3.726 0 0 0-.233-1.26 2.222 2.222 0 0 0-1.285-1.284 3.73 3.73 0 0 0-1.26-.234l-.575-.024c-.225-.007-.47-.011-.844-.014Z" fill="#2A2A2A"/></svg>