<svg width="163" height="35" viewBox="0 0 163 35" fill="none" xmlns="http://www.w3.org/2000/svg"><path d="M85.882 26.638a2.47 2.47 0 0 0 1.02 1.4c.498.33 1.1.47 1.695.395a5.299 5.299 0 0 0 3.372-1.463l-.68-.63c-.234.25-.544.418-.883.48-.42 0-.635-.3-.635-.908v-7.64a3.184 3.184 0 0 0-.421-1.593 3.217 3.217 0 0 0-1.163-1.175 6.505 6.505 0 0 0-3.566-.897 11.944 11.944 0 0 0-3.425.48 5.722 5.722 0 0 0-2.866 1.603 1.82 1.82 0 0 0-.528 1.176 1.062 1.062 0 0 0 .636 1.004c.395.228.846.343 1.303.331a2.6 2.6 0 0 0 1.54-.47 1.435 1.435 0 0 0 .647-1.197 1.625 1.625 0 0 0-.204-.694c-.14-.289-.216-.438-.216-.46 0-.32.259-.555.787-.726a3.6 3.6 0 0 1 1.238-.235c1.466 0 2.155.684 2.155 2.073v2.254c-1.73.763-3.458 1.532-5.182 2.308-2.154 1.133-3.232 2.351-3.232 3.676a2.21 2.21 0 0 0 1.078 1.966c.78.485 1.687.73 2.607.705a8.175 8.175 0 0 0 4.923-1.763Zm-2.92-4.274a14.573 14.573 0 0 1 2.78-1.592v4.83a3.797 3.797 0 0 1-2.316.962 1.692 1.692 0 0 1-1.275-.464 1.667 1.667 0 0 1-.514-1.246 3.213 3.213 0 0 1 1.325-2.447v-.043ZM53.241 27.177a3.625 3.625 0 0 1-1.758-.316 3.592 3.592 0 0 1-1.387-1.116 5.13 5.13 0 0 1-.852-3.098V10.08l8.619 17.908h1.077l8.812-18.443v15.088c0 1.699-1.163 2.543-3.49 2.543v.844h11.376v-.844a6.34 6.34 0 0 1-2.446-.352 1.9 1.9 0 0 1-.83-.764 1.878 1.878 0 0 1-.247-1.096V9.931a1.878 1.878 0 0 1 .247-1.096 1.9 1.9 0 0 1 .83-.763 5.827 5.827 0 0 1 2.446-.396v-.801H68.01l-7.746 16.028-7.864-16.028h-8.069v.833a5.308 5.308 0 0 1 3.857 1.304v13.699c0 2.977-1.286 4.466-3.857 4.466v.844h8.91v-.844ZM121.346 25.733v-6.828c0-2.85-1.627-4.274-4.88-4.274-2.251.06-4.421.844-6.184 2.233a3.792 3.792 0 0 0-1.864-1.656 6.43 6.43 0 0 0-2.736-.599 9.743 9.743 0 0 0-5.785 2.138v-2.138h-.57l-5.71 1.56v.513a3.757 3.757 0 0 1 1.723.962 2.55 2.55 0 0 1 .463 1.688v6.134c0 .726-.161 1.186-.495 1.4a3.775 3.775 0 0 1-1.831.31v.844h8.682v-.845a3.934 3.934 0 0 1-1.615-.235 1.234 1.234 0 0 1-.636-1.207v-8.057a6.662 6.662 0 0 1 4.255-1.838c1.605 0 2.413.994 2.413 2.982v6.635c.05.485-.08.972-.366 1.368a2.048 2.048 0 0 1-1.497.352h-.356v.845h8.478v-.845a3.256 3.256 0 0 1-1.702-.299 1.636 1.636 0 0 1-.528-1.442v-7.758a7.151 7.151 0 0 1 4.309-1.838c1.606 0 2.414 1.069 2.414 3.291v6.476c0 .673-.173 1.068-.507 1.293a4.026 4.026 0 0 1-1.756.277v.845h8.522v-.845a4.593 4.593 0 0 1-1.595-.235 1.24 1.24 0 0 1-.646-1.207ZM158.687 26.97l-.668-.63a1.64 1.64 0 0 1-.883.48c-.42 0-.636-.3-.636-.908v-7.64a3.108 3.108 0 0 0-.417-1.6 3.147 3.147 0 0 0-1.177-1.168 6.506 6.506 0 0 0-3.566-.897 12.068 12.068 0 0 0-3.426.48 5.779 5.779 0 0 0-2.865 1.603c-.31.318-.497.735-.528 1.176a1.12 1.12 0 0 0 .636 1.004c.398.23.853.344 1.314.331a2.567 2.567 0 0 0 1.519-.47 1.404 1.404 0 0 0 .657-1.197 1.672 1.672 0 0 0-.215-.694 3.385 3.385 0 0 1-.205-.46c0-.32.258-.555.776-.726.401-.14.824-.209 1.249-.203 1.476 0 2.155.684 2.155 2.073v2.254l-5.182 2.308c-2.155 1.133-3.232 2.351-3.232 3.676-.012.393.082.782.271 1.128.189.345.468.634.806.838.784.485 1.695.73 2.618.705a8.16 8.16 0 0 0 4.837-1.795 2.48 2.48 0 0 0 1.026 1.402c.5.33 1.104.47 1.7.393a5.299 5.299 0 0 0 3.436-1.463Zm-6.216-1.325a3.774 3.774 0 0 1-2.316.961 1.736 1.736 0 0 1-1.303-.502 1.674 1.674 0 0 1-.474-1.218 3.18 3.18 0 0 1 .367-1.395 3.22 3.22 0 0 1 .947-1.095 15.33 15.33 0 0 1 2.779-1.592v4.84ZM139.112 23.968l-2.973-4.808a20.666 20.666 0 0 1 2.154-2.212 4.743 4.743 0 0 1 3.038-1.144v-.897h-7.81v.897c1.314.129 1.982.556 1.982 1.315 0 .758-1.379 2.5-4.137 4.744V6.391h-.614l-5.623 1.549v.598a2.774 2.774 0 0 1 1.745.962c.349.544.515 1.184.474 1.827v13.806c0 .865-.108 1.4-.345 1.624a2.763 2.763 0 0 1-1.874.417v.844h8.198v-.844c-1.25 0-1.874-.417-1.874-1.261v-2.907l1.691-1.378c1.997 3.099 2.995 4.72 2.995 4.862 0 .395-.399.63-1.207.684v.844h7.541v-.844c-1.099-.32-2.197-1.4-3.361-3.206ZM19.933 27.362a.579.579 0 0 1 .688.133l1.908 1.258 1.086-.61-1.923-1.329c-.187-.203-.078-.281 0-.328a36.53 36.53 0 0 1 4.175-1.564l2.494 1.564 1.243-.54-2.26-1.493a49.256 49.256 0 0 1 4.566-1.016l-.782-1.016c-1.48.292-2.921.636-4.323 1.032l.29-2.127-1.205.344-.281 2.127a40.946 40.946 0 0 0-4.519 1.673c-.07 0-.227 0-.172-.227l.258-1.915-1.211.453-.266 1.822a.916.916 0 0 1-.29.664 27.651 27.651 0 0 0-3.838 2.29l1.235.783c.996-.73 2.041-1.39 3.127-1.978Z" fill="#2A2A2A"/><path d="M19.824 34.226A16.723 16.723 0 1 0 19.839.78a16.723 16.723 0 0 0-.015 33.446Zm0-32.397a15.636 15.636 0 0 1 15.635 15.674c0 .407 0 .782-.039 1.212-11.406-3.612-18.848-.649-23.805 6.731v-10.32l8.029-8.599 7.998 8.6v1.376l1.25.055V14.79l-3.26-3.51V8.09h-1.149v1.9l-4.808-5.16-9.264 9.85v12.806h1.165c5.84-8.858 13.697-11.344 23.72-7.466A15.635 15.635 0 1 1 19.823 1.829Z" fill="#2A2A2A"/></svg>